<?xml version="1.0" encoding="UTF-8" standalone="no"?>
<!-- Created with Inkscape (http://www.inkscape.org/) -->

<svg
   width="512"
   height="512"
   viewBox="0 0 135.46666 135.46667"
   version="1.1"
   id="svg575"
   inkscape:export-filename="logo.png"
   inkscape:export-xdpi="96"
   inkscape:export-ydpi="96"
   inkscape:version="1.2.2 (b0a8486541, 2022-12-01)"
   sodipodi:docname="logo.svg"
   xmlns:inkscape="http://www.inkscape.org/namespaces/inkscape"
   xmlns:sodipodi="http://sodipodi.sourceforge.net/DTD/sodipodi-0.dtd"
   xmlns="http://www.w3.org/2000/svg"
   xmlns:svg="http://www.w3.org/2000/svg">
  <sodipodi:namedview
     id="namedview577"
     pagecolor="#ffffff"
     bordercolor="#000000"
     borderopacity="0.25"
     inkscape:showpageshadow="2"
     inkscape:pageopacity="0.0"
     inkscape:pagecheckerboard="0"
     inkscape:deskcolor="#d1d1d1"
     inkscape:document-units="mm"
     showgrid="false"
     inkscape:zoom="0.90453255"
     inkscape:cx="250.40558"
     inkscape:cy="356.53775"
     inkscape:window-width="1452"
     inkscape:window-height="752"
     inkscape:window-x="76"
     inkscape:window-y="182"
     inkscape:window-maximized="0"
     inkscape:current-layer="layer1" />
  <defs
     id="defs572">
    <inkscape:path-effect
       effect="perspective-envelope"
       up_left_point="3.4027491,13.392886"
       up_right_point="131.37537,11.794693"
       down_left_point="4.1637873,123.77936"
       down_right_point="131.98461,122.81649"
       id="path-effect1282"
       is_visible="true"
       lpeversion="1"
       deform_type="perspective"
       horizontal_mirror="false"
       vertical_mirror="false"
       overflow_perspective="false" />
  </defs>
  <g
     inkscape:label="Layer 1"
     inkscape:groupmode="layer"
     id="layer1">
    <path
       style="fill:#000000;stroke-width:0.243074"
       d="m 95.239074,90.670438 c -4.754069,-0.948096 -7.793694,-3.349702 -10.140909,-8.010465 -0.46729,-0.927549 -3.345815,-7.747665 -6.396654,-15.15491 -3.050813,-7.407011 -5.609426,-13.529496 -5.6858,-13.60594 -0.07645,-0.07399 -0.1758,-0.08808 -0.220492,-0.04462 -0.107327,0.132222 -4.700899,8.567535 -14.086461,25.866533 -1.740785,3.208902 -3.755914,6.900314 -4.478013,8.204214 l -1.312932,2.370129 h -4.857981 -4.858028 l 0.591052,-1.033464 c 0.929136,-1.624008 4.623823,-8.222655 8.540433,-15.252845 1.973724,-3.542984 4.356443,-7.808727 5.294948,-9.479701 2.238169,-3.985328 4.531629,-8.080451 6.875176,-12.275386 1.045549,-1.871539 2.482369,-4.423328 3.192842,-5.670629 0.710404,-1.248006 1.29176,-2.321516 1.29176,-2.387158 0,-0.348403 -7.180837,-17.388356 -7.718122,-18.315554 -0.987046,-1.703267 -3.131274,-3.815061 -4.344064,-4.278189 -1.557378,-0.595351 -5.762774,-0.348404 -8.842042,0.517379 -1.270011,0.357212 -2.462192,0.665807 -2.649218,0.686474 -0.232551,0.02936 -0.633831,-0.923204 -1.270598,-3.002353 -0.511838,-1.671209 -0.887391,-3.16076 -0.834478,-3.310244 0.117592,-0.333727 4.305468,-1.673912 6.455847,-2.065292 2.405523,-0.438001 8.52796,-0.368954 10.54862,0.117664 2.403387,0.579146 4.308942,1.685419 5.97446,3.465719 2.274604,2.431544 2.33706,2.55813 7.783409,15.767287 1.708784,4.144442 4.059142,9.832215 5.223059,12.639759 3.542905,8.546163 7.78571,18.857712 10.45118,25.400935 2.099235,5.153134 3.099795,7.049095 4.567212,8.654545 1.395677,1.527249 3.600327,2.708791 5.466399,2.929788 0.700701,0.08808 1.273971,0.182244 1.273971,0.217589 0,0.07398 -2.256453,6.228404 -2.555441,6.975117 -0.202272,0.505636 -0.991908,0.520433 -3.278765,0.07397 z"
       id="path1329" />
    <path
       style="fill:#000000;stroke-width:0.243074"
       d="m 66.313963,111.69345 v -6.32 h 1.215325 c 0.918248,0 1.215327,0.0881 1.215327,0.36602 0,0.48215 0.166392,0.46008 0.905904,-0.11759 0.796704,-0.62623 1.573394,-0.61732 2.15557,0.0447 0.424075,0.46889 0.469203,1.00999 0.535923,6.44166 l 0.07198,5.93025 h -1.105953 -1.105826 v -4.93648 c 0,-3.83385 -0.07492,-5.03993 -0.338372,-5.39938 -0.287379,-0.39242 -0.397018,-0.41298 -0.729229,-0.14701 -0.336461,0.27935 -0.391005,1.03335 -0.391005,5.3989 v 5.07505 H 67.52828 66.312953 Z"
       id="path1327" />
    <path
       style="fill:#000000;stroke-width:0.243074"
       d="m 95.072999,118.38674 c -1.444328,-0.62763 -1.65646,-1.42296 -1.65646,-6.20726 0,-4.6152 0.180069,-5.49766 1.266625,-6.20973 0.704095,-0.46161 2.704822,-0.52184 3.483643,-0.10337 0.707023,0.37765 1.205042,1.67849 1.205042,3.14655 v 1.223 h -1.093771 -1.093775 v -0.92602 c 0,-0.50858 -0.152128,-1.13482 -0.338364,-1.38904 -0.289726,-0.3955 -0.395415,-0.41604 -0.734819,-0.13234 -0.343372,0.28371 -0.387767,0.88633 -0.330143,4.48779 0.06465,4.02714 0.08234,4.16053 0.581651,4.23182 0.569151,0.0881 0.812569,-0.46454 0.818305,-1.83561 0.0036,-0.77326 0.02784,-0.78946 1.097145,-0.78946 h 1.093921 l -7.2e-4,1.39784 c -7.2e-4,1.8234 -0.601477,2.85205 -1.870253,3.20433 -1.17873,0.32633 -1.48098,0.31458 -2.427657,-0.10337 z"
       id="path1325" />
    <path
       style="fill:#000000;stroke-width:0.243074"
       d="m 41.184915,118.49011 c -0.988378,-0.29544 -1.812121,-1.14654 -2.094133,-2.16123 -0.387753,-1.39502 -0.341898,-1.47639 0.830508,-1.47639 0.996903,0 1.086135,0.0587 1.235172,0.73203 0.215054,0.97898 1.052327,1.44493 1.49951,0.8335 0.75539,-1.03348 0.345432,-2.01551 -1.768827,-4.23816 -0.572241,-0.60109 -1.155944,-1.40077 -1.297207,-1.77807 -0.633527,-1.68753 -0.03535,-3.87906 1.242968,-4.56387 0.690865,-0.36896 2.406157,-0.35723 3.113322,0 0.598838,0.31892 1.220621,1.61777 1.220621,2.54696 0,0.56435 -0.08818,0.61579 -1.063493,0.61579 -0.987192,0 -1.073922,-0.0587 -1.209291,-0.72898 -0.188305,-0.94082 -1.047324,-1.02303 -1.273547,-0.11771 -0.25047,0.99812 0.07645,1.72323 1.447138,3.20856 1.61724,1.75269 2.099381,2.67449 2.098207,4.01091 -0.0012,1.34054 -0.734959,2.55134 -1.819614,3.00436 -0.93355,0.38949 -1.153887,0.39983 -2.161181,0.10338 z"
       id="path1323" />
    <path
       style="fill:#ff6600;stroke-width:0.243074"
       d="m 81.870598,111.57089 v -8.62882 h 1.215329 1.215321 v 8.62882 8.6293 h -1.215321 -1.215329 z"
       id="path1321" />
    <path
       id="path1317"
       style="fill:#ff6600;stroke-width:0.243074"
       d="M 56.023971 102.72086 C 55.521705 102.72737 55.007271 102.87734 54.427169 103.17355 C 52.800405 104.00281 52.701693 104.47812 52.701693 111.43351 C 52.701693 117.87279 52.807142 118.61136 53.857694 119.54619 C 54.129184 119.78727 54.663854 120.07829 55.045736 120.19576 L 55.045736 120.18181 C 56.528651 120.63142 58.097135 119.92181 58.839303 118.46667 C 59.210342 117.7378 59.264354 116.8557 59.2646 111.43144 C 59.265023 104.47676 59.165806 103.99591 57.548425 103.12859 C 57.016427 102.85103 56.526236 102.71435 56.023971 102.72086 z M 55.983146 105.1295 C 56.174235 105.1295 56.443901 105.33954 56.582076 105.59976 C 56.851822 106.10305 56.945458 116.70972 56.686462 117.38457 L 56.685946 117.38457 C 56.604805 117.59477 56.28837 117.77007 55.982629 117.77007 C 55.677038 117.77007 55.360093 117.59477 55.279313 117.38457 C 55.020476 116.70972 55.114113 106.10246 55.3837 105.59976 C 55.522015 105.33954 55.7922 105.1295 55.983146 105.1295 z " />
    <path
       style="fill:none;stroke-width:0.243074;stroke:#000000"
       d="M 129.5128,67.69635 V 6.199065 H 67.772369 6.0319551 V 67.69635 129.19387 H 67.772369 129.5128 Z"
       id="path1315" />
  </g>
</svg>
